<?xml version="1.0" encoding="utf-8"?>
<!-- Generator: Adobe Illustrator 15.1.0, SVG Export Plug-In . SVG Version: 6.00 Build 0)  -->
<!DOCTYPE svg PUBLIC "-//W3C//DTD SVG 1.1//EN" "http://www.w3.org/Graphics/SVG/1.1/DTD/svg11.dtd">
<svg version="1.1" id="Layer_1" xmlns="http://www.w3.org/2000/svg" xmlns:xlink="http://www.w3.org/1999/xlink" x="0px" y="0px"
	 width="51.208px" height="54.2px" viewBox="0 0 51.208 54.2" enable-background="new 0 0 51.208 54.2" xml:space="preserve">
<g>
	<polygon fill="#FFFFFF" points="47.447,18.369 47.447,54.2 8.713,54.2 8.713,3.675 34.475,3.675 	"/>
	<g>
		<g>
			<path fill="#A9A193" d="M49.911,15.906c0.154,5.972,0.232,11.944,0.342,17.917c0.116,5.971,0.141,11.943,0.216,17.915
				l0.008,0.551l-0.564,0.006l-9.685,0.103l-9.684,0.057L11.177,52.52l-0.781,0.003l-0.001-0.786l-0.03-12.632l0.044-12.631
				l0.044-12.631c0.023-4.21,0.009-8.421,0.068-12.631l0.01-0.665l0.647,0.007L36.94,0.841l0.173,0.001l0.104,0.123
				C41.448,5.945,45.713,10.895,49.911,15.906z M49.911,15.906c-4.451-4.787-8.834-9.631-13.25-14.449l0.277,0.124L11.176,1.868
				l0.657-0.657c0.059,4.21,0.044,8.421,0.068,12.631l0.044,12.631l0.044,12.631l-0.03,12.632l-0.784-0.783l19.366,0.067
				l9.685,0.056l9.684,0.103l-0.558,0.559c0.074-5.973,0.1-11.944,0.216-17.916C49.677,27.849,49.755,21.878,49.911,15.906z"/>
		</g>
		<g>
			<path fill="#A9A193" d="M36.938,1.211c0.705,0.615,1.213,1.437,1.628,2.283c0.398,0.856,0.706,1.767,0.885,2.7
				c0.2,0.932,0.28,1.882,0.293,2.83c0.027,0.95-0.066,1.895-0.189,2.829l-0.877-0.927c1.095-0.125,2.184-0.051,3.258,0.086
				c1.07,0.165,2.125,0.444,3.125,0.86c1,0.416,1.942,0.967,2.775,1.643c0.825,0.684,1.548,1.483,2.075,2.389
				c-0.82-0.651-1.65-1.235-2.541-1.689c-0.885-0.463-1.808-0.822-2.75-1.092c-0.943-0.269-1.908-0.451-2.882-0.545
				c-0.969-0.116-1.951-0.101-2.909-0.039l-1.046,0.067l0.17-0.994c0.148-0.871,0.219-1.747,0.286-2.621
				c0.05-0.875,0.05-1.753-0.005-2.63c-0.065-0.874-0.175-1.75-0.384-2.614C37.645,2.885,37.373,2.025,36.938,1.211z"/>
		</g>
	</g>
	<rect x="0.476" y="10.85" fill="#D74B23" width="28.261" height="12.247"/>
	<g>
		<path fill="#75280A" d="M2.939,20.529c2.355-0.102,4.71-0.159,7.065-0.229c2.355-0.08,4.71-0.114,7.065-0.156l7.064-0.125
			l7.065-0.048l-0.558,0.558L30.585,8.282l0.613,0.614L17.069,8.818c-4.71-0.019-9.419-0.146-14.13-0.214L3.26,8.282l-0.143,6.123
			C3.07,16.447,3.013,18.488,2.939,20.529z M2.939,20.529c-0.074-2.041-0.13-4.082-0.176-6.123L2.62,8.283L2.612,7.968l0.328-0.004
			c4.71-0.069,9.42-0.196,14.13-0.215l14.129-0.08l0.617-0.003l-0.002,0.618L31.756,20.53l-0.001,0.561l-0.557-0.003l-7.065-0.047
			l-7.064-0.125c-2.355-0.041-4.71-0.076-7.065-0.156C7.65,20.689,5.295,20.632,2.939,20.529z"/>
	</g>
</g>
</svg>
